<svg width="90" height="34" viewBox="0 0 90 34" fill="none" xmlns="http://www.w3.org/2000/svg">
<path d="M15.51 33.37C12.22 33.37 9.41566 32.7903 7.09699 31.631C4.80966 30.4403 3.05499 28.6073 1.83299 26.132C0.610988 23.6567 -1.19433e-05 20.5077 -1.19433e-05 16.685C-1.19433e-05 11.045 1.36299 6.862 4.08899 4.136C6.84632 1.37867 10.669 -8.9407e-07 15.557 -8.9407e-07C18.2517 -8.9407e-07 20.6643 0.454332 22.795 1.363C24.957 2.27166 26.649 3.63466 27.871 5.452C29.1243 7.238 29.751 9.52533 29.751 12.314H24.393C24.393 10.5907 24.0327 9.14933 23.312 7.99C22.5913 6.83067 21.5573 5.95333 20.21 5.358C18.894 4.76266 17.3587 4.465 15.604 4.465C13.4107 4.465 11.5463 4.90366 10.011 5.781C8.50699 6.627 7.36332 7.91166 6.57999 9.635C5.82799 11.3583 5.45199 13.5517 5.45199 16.215V17.249C5.45199 19.9123 5.82799 22.1057 6.57999 23.829C7.36332 25.5523 8.50699 26.837 10.011 27.683C11.515 28.4977 13.3793 28.905 15.604 28.905C17.4213 28.905 19.0037 28.623 20.351 28.059C21.6983 27.4637 22.7323 26.5863 23.453 25.427C24.205 24.2677 24.581 22.8263 24.581 21.103H29.751C29.751 23.8917 29.1243 26.1947 27.871 28.012C26.649 29.8293 24.957 31.1767 22.795 32.054C20.6643 32.9313 18.236 33.37 15.51 33.37ZM35.6076 32.806V0.563997H52.7156C54.5016 0.563997 56.0683 0.892998 57.4156 1.551C58.763 2.17766 59.8126 3.08633 60.5646 4.277C61.348 5.46767 61.7396 6.862 61.7396 8.46C61.7396 9.682 61.5046 10.7943 61.0346 11.797C60.596 12.7997 59.9693 13.6457 59.1546 14.335C58.3713 15.0243 57.4783 15.5413 56.4756 15.886V16.074C57.635 16.3247 58.669 16.7947 59.5776 17.484C60.5176 18.142 61.254 19.0193 61.7866 20.116C62.3506 21.1813 62.6326 22.466 62.6326 23.97C62.6326 26.0067 62.1783 27.683 61.2696 28.999C60.3923 30.315 59.2173 31.2863 57.7446 31.913C56.272 32.5083 54.5956 32.806 52.7156 32.806H35.6076ZM40.8716 28.294H52.2926C53.734 28.294 54.909 27.918 55.8176 27.166C56.7576 26.3827 57.2276 25.1293 57.2276 23.406C57.2276 22.372 57.024 21.4947 56.6166 20.774C56.2406 20.022 55.661 19.458 54.8776 19.082C54.0943 18.6747 53.1073 18.471 51.9166 18.471H40.8716V28.294ZM40.8716 14.053H51.4936C52.4963 14.053 53.358 13.865 54.0786 13.489C54.7993 13.113 55.3476 12.5803 55.7236 11.891C56.131 11.2017 56.3346 10.434 56.3346 9.588C56.3346 8.05266 55.9116 6.92466 55.0656 6.204C54.251 5.452 53.17 5.076 51.8226 5.076H40.8716V14.053ZM71.6636 32.806C71.6636 30.0173 72.0083 27.3227 72.6976 24.722C73.3869 22.09 74.3113 19.599 75.4706 17.249C76.6613 14.8677 77.9459 12.6587 79.3246 10.622C80.7346 8.554 82.1289 6.70533 83.5076 5.076H66.7756V0.563997H89.6176V3.713C88.5209 5.029 87.3773 6.486 86.1866 8.084C84.9959 9.65067 83.8523 11.327 82.7556 13.113C81.6589 14.899 80.6719 16.7477 79.7946 18.659C78.9486 20.5703 78.2749 22.5287 77.7736 24.534C77.2723 26.508 77.0216 28.4977 77.0216 30.503V32.806H71.6636Z" fill="url(#paint0_linear_4143_278)"/>
<defs>
<linearGradient id="paint0_linear_4143_278" x1="20.2348" y1="-70.2471" x2="110.725" y2="-25.1743" gradientUnits="userSpaceOnUse">
<stop stop-color="#00B4FD"/>
<stop offset="1" stop-color="#003ACE"/>
</linearGradient>
</defs>
</svg>
